<?xml version="1.0" encoding="UTF-8" standalone="no"?>
<!-- Created with Inkscape (http://www.inkscape.org/) -->

<svg
   width="127.88565mm"
   height="47.625mm"
   viewBox="0 0 127.88565 47.625"
   version="1.1"
   id="svg1"
   inkscape:version="1.3 (0e150ed6c4, 2023-07-21)"
   sodipodi:docname="logoUmetal.svg"
   xmlns:inkscape="http://www.inkscape.org/namespaces/inkscape"
   xmlns:sodipodi="http://sodipodi.sourceforge.net/DTD/sodipodi-0.dtd"
   xmlns:xlink="http://www.w3.org/1999/xlink"
   xmlns="http://www.w3.org/2000/svg"
   xmlns:svg="http://www.w3.org/2000/svg">
  <sodipodi:namedview
     id="namedview1"
     pagecolor="#ffffff"
     bordercolor="#000000"
     borderopacity="0.25"
     inkscape:showpageshadow="2"
     inkscape:pageopacity="0.0"
     inkscape:pagecheckerboard="0"
     inkscape:deskcolor="#d1d1d1"
     inkscape:document-units="mm"
     inkscape:zoom="1.4485269"
     inkscape:cx="372.79252"
     inkscape:cy="65.929047"
     inkscape:window-width="1920"
     inkscape:window-height="1009"
     inkscape:window-x="-8"
     inkscape:window-y="-8"
     inkscape:window-maximized="1"
     inkscape:current-layer="layer1" />
  <defs
     id="defs1">
    <pattern
       inkscape:collect="always"
       xlink:href="#pattern1"
       preserveAspectRatio="xMidYMid"
       id="pattern2"
       patternTransform="matrix(0,0.5,-0.5,0,472.24727,20.565712)"
       x="0"
       y="0" />
    <pattern
       patternUnits="userSpaceOnUse"
       width="50.353161"
       height="101.00015"
       patternTransform="translate(47.148143,27.298179)"
       preserveAspectRatio="xMidYMid"
       id="pattern1"
       inkscape:label="pattern1">
      <path
         d="M 0.17658037,0.50009914 A 25,25 0 0 1 22.17658,37.500099 l -17.9999996,25 A 25,25 0 0 0 25.17658,100.5001 a 25,25 0 0 0 21,-38.000001 l -18,-25 a 25,25 0 0 1 22,-36.99999986"
         stroke="#000000"
         fill="none"
         id="path1" />
    </pattern>
    <rect
       x="28.527802"
       y="198.99881"
       width="480.10202"
       height="184.38701"
       id="rect10" />
  </defs>
  <g
     inkscape:label="Layer 1"
     inkscape:groupmode="layer"
     id="layer1"
     transform="translate(-69.850001,-102.12917)">
    <path
       class="cls-1"
       d="m 193.43882,117.34536 -30.42973,-15.21619 v 17.3646 c 0,0 0,25.58257 0,25.58257 0,2.58498 2.0955,4.67783 4.67783,4.67783 h 25.3709 c 2.58498,0 4.67783,-2.0955 4.67783,-4.67783 v -20.77773 c 0,-2.94482 -1.66423,-5.63827 -4.29683,-6.95325 z"
       id="path9"
       style="fill:#0c88b4;stroke-width:0px" />
    <g
       id="g2"
       transform="matrix(0.26458333,0,0,0.26458333,32.959344,103.23375)">
      <rect
         style="fill:#ffffff;fill-opacity:1;stroke:none;stroke-width:1;stroke-miterlimit:2.3;stroke-dasharray:none"
         id="rect2-7"
         width="48.708488"
         height="123.98524"
         x="523"
         y="40" />
      <rect
         style="fill:url(#pattern2);fill-opacity:1;stroke:#000000;stroke-width:2.1;stroke-miterlimit:2.3;stroke-dasharray:none"
         id="rect2"
         width="48.708488"
         height="123.98524"
         x="523.5"
         y="40.5" />
    </g>
    <path
       style="fill:none;fill-opacity:1;stroke:#f27813;stroke-width:1.14221;stroke-miterlimit:2.3;stroke-dasharray:none;stroke-opacity:1"
       d="m 171.74463,123.28851 c 0,8.68882 0.0106,11.76981 0.0106,11.76981 l 12.25864,0.0542 -0.0708,-11.75859"
       id="path10"
       sodipodi:nodetypes="cccc" />
    <text
       xml:space="preserve"
       id="text10"
       style="font-style:normal;font-variant:normal;font-weight:bold;font-stretch:normal;font-size:96px;font-family:Dubai;-inkscape-font-specification:'Dubai, Bold';font-variant-ligatures:normal;font-variant-caps:normal;font-variant-numeric:normal;font-variant-east-asian:normal;white-space:pre;shape-inside:url(#rect10);display:inline;fill:none;fill-opacity:1;stroke:#f27813;stroke-width:4.317;stroke-miterlimit:2.3;stroke-dasharray:none;stroke-opacity:1"
       transform="matrix(0.26458333,0,0,0.26458333,60.88887,62.956285)"><tspan
         x="28.527344"
         y="285.47047"
         id="tspan3"><tspan
           style="font-weight:600;font-family:'Segoe UI';-inkscape-font-specification:'Segoe UI, Semi-Bold';fill:#000000;stroke:#000000"
           id="tspan1">UMetal</tspan></tspan></text>
  </g>
</svg>
